<svg xmlns="http://www.w3.org/2000/svg" viewBox="0 0 750 500"><g id="freepik--background-simple--inject-2"><path d="M696,125S657,35,534,16,356.11,31.05,321,77,261,67,158,63c-36.5-1.42-77.72,5.12-102.79,34.33-19.3,22.49-26.82,57.33-8.5,82.7,16.23,22.48,53.37,56.32,35.29,87-23,39-53,99-21,144s66,64,165,45,134-58,182-34,147,61,206,47,40-86,36-111,61-51,63-118S707,150,696,125Z" style="fill:#7E57C2"></path><path d="M696,125S657,35,534,16,356.11,31.05,321,77,261,67,158,63c-36.5-1.42-77.72,5.12-102.79,34.33-19.3,22.49-26.82,57.33-8.5,82.7,16.23,22.48,53.37,56.32,35.29,87-23,39-53,99-21,144s66,64,165,45,134-58,182-34,147,61,206,47,40-86,36-111,61-51,63-118S707,150,696,125Z" style="fill:#fff;opacity:0.7000000000000001"></path></g><g id="freepik--Floor--inject-2"><line x1="656.1" y1="412.99" x2="722.1" y2="412.99" style="fill:none;stroke:#263238;stroke-linecap:round;stroke-linejoin:round"></line><line x1="28.1" y1="412.99" x2="649.1" y2="412.99" style="fill:none;stroke:#263238;stroke-linecap:round;stroke-linejoin:round"></line></g><g id="freepik--Egg--inject-2"><path d="M302.63,102.33c-3.5-8.61-5.57-17.83-5.57-24.4,0-16.13,12.46-29.2,27.84-29.2s27.84,13.07,27.84,29.2S340.27,126,324.9,126c-8,0-15.2-8.64-20.27-19.2" style="fill:none;stroke:#263238;stroke-linecap:round;stroke-linejoin:round"></path><path d="M335.58,90.84a16.84,16.84,0,0,1-10.68,3.84c-9.71,0-17.57-8.35-17.57-18.65s7.86-18.65,17.57-18.65S342.47,65.73,342.47,76a19.37,19.37,0,0,1-3.2,10.73" style="fill:none;stroke:#263238;stroke-linecap:round;stroke-linejoin:round"></path></g><g id="freepik--Plant--inject-2"><ellipse cx="666.52" cy="269.2" rx="10.35" ry="27.15" style="fill:#7E57C2;stroke:#263238;stroke-miterlimit:10"></ellipse><path d="M698.68,252.46c-3.23,10.18-9.45,17.3-13.88,15.89s-5.41-10.81-2.17-21,9.45-17.3,13.89-15.9S701.92,242.27,698.68,252.46Z" style="fill:#7E57C2;stroke:#263238;stroke-miterlimit:10"></path><path d="M622.73,313.87c-10.54-1.78-18.45-6.95-17.68-11.53s10-6.86,20.49-5.07,18.45,7,17.67,11.53S633.26,315.66,622.73,313.87Z" style="fill:#7E57C2;stroke:#263238;stroke-miterlimit:10"></path><path d="M708.43,288.77c-8.8,8.73-19.2,12.51-23.23,8.46s-.15-14.43,8.65-23.16,19.2-12.51,23.23-8.45S717.23,280,708.43,288.77Z" style="fill:#7E57C2;stroke:#263238;stroke-miterlimit:10"></path><path d="M647.79,264.83c8.51,12.35,11,25.36,5.66,29.07s-16.65-3.29-25.16-15.64-11-25.36-5.66-29.07S639.27,252.48,647.79,264.83Z" style="fill:#7E57C2;stroke:#263238;stroke-miterlimit:10"></path><line x1="667.25" y1="295" x2="668.05" y2="377.6" style="fill:none;stroke:#263238;stroke-linecap:round;stroke-miterlimit:10"></line><line x1="666.28" y1="259.11" x2="667.25" y2="295" style="fill:none;stroke:#263238;stroke-linecap:round;stroke-miterlimit:10"></line><line x1="666.35" y1="253.25" x2="666.28" y2="256" style="fill:none;stroke:#263238;stroke-linecap:round;stroke-miterlimit:10"></line><path d="M653.41,292.14a104.14,104.14,0,0,1,10.22,39.18v51.09" style="fill:none;stroke:#263238;stroke-linecap:round;stroke-miterlimit:10"></path><path d="M635.63,264.94a122.92,122.92,0,0,1,17.78,27.2" style="fill:none;stroke:#263238;stroke-linecap:round;stroke-miterlimit:10"></path><path d="M630,259s1.08,1,2.84,2.86" style="fill:none;stroke:#263238;stroke-linecap:round;stroke-miterlimit:10"></path><path d="M685.85,296a122.44,122.44,0,0,0-16.78,33.31" style="fill:none;stroke:#263238;stroke-linecap:round;stroke-miterlimit:10"></path><path d="M697.76,282.29A97.77,97.77,0,0,0,685.85,296" style="fill:none;stroke:#263238;stroke-linecap:round;stroke-miterlimit:10"></path><path d="M710.47,272.6a54.14,54.14,0,0,0-9.06,6.42" style="fill:none;stroke:#263238;stroke-linecap:round;stroke-miterlimit:10"></path><path d="M685.41,265.83c-5.73,18-13.43,44.71-17,67.86" style="fill:none;stroke:#263238;stroke-linecap:round;stroke-miterlimit:10"></path><path d="M688.91,255.12c-1,3-2.21,6.66-3.5,10.71" style="fill:none;stroke:#263238;stroke-linecap:round;stroke-miterlimit:10"></path><path d="M692.49,244.76s-1,2.77-2.62,7.51" style="fill:none;stroke:#263238;stroke-linecap:round;stroke-miterlimit:10"></path><path d="M642.68,306.3c7.16,2.72,17,10.3,20.36,20.22" style="fill:none;stroke:#263238;stroke-linecap:round;stroke-miterlimit:10"></path><path d="M629.44,303.61a45.43,45.43,0,0,1,13.24,2.69" style="fill:none;stroke:#263238;stroke-linecap:round;stroke-miterlimit:10"></path><path d="M620.87,303.82s1.27-.18,3.38-.26" style="fill:none;stroke:#263238;stroke-linecap:round;stroke-miterlimit:10"></path><path d="M643.39,353.58c-9.68,4.52-19.12,4.77-21.09.55s4.28-11.29,14-15.81,19.13-4.77,21.1-.56S653.08,349.06,643.39,353.58Z" style="fill:#7E57C2;stroke:#263238;stroke-miterlimit:10"></path><path d="M643.09,341.31A45.44,45.44,0,0,1,655.51,336a6.19,6.19,0,0,1,6.66.13c1.31.87.87,7.42.87,7.42V377.6" style="fill:none;stroke:#263238;stroke-linecap:round;stroke-miterlimit:10"></path><path d="M636.15,346.36s1-.87,2.63-2.13" style="fill:none;stroke:#263238;stroke-linecap:round;stroke-miterlimit:10"></path><path d="M712.9,313.87c10.54-1.78,18.45-6.95,17.67-11.53s-10-6.86-20.48-5.07-18.45,7-17.68,11.53S702.36,315.66,712.9,313.87Z" style="fill:#7E57C2;stroke:#263238;stroke-miterlimit:10"></path><path d="M693.17,306.22a33.4,33.4,0,0,0-3.75,1.65,26.26,26.26,0,0,0-14,23.41v45" style="fill:none;stroke:#263238;stroke-linecap:round;stroke-miterlimit:10"></path><path d="M707.29,303.56a45.81,45.81,0,0,0-14.12,2.66" style="fill:none;stroke:#263238;stroke-linecap:round;stroke-miterlimit:10"></path><path d="M714.76,303.82s-.84-.12-2.29-.21" style="fill:none;stroke:#263238;stroke-linecap:round;stroke-miterlimit:10"></path><ellipse cx="706.53" cy="337.41" rx="8.42" ry="19.35" transform="matrix(0.5, -0.87, 0.87, 0.5, 61.38, 781.05)" style="fill:#7E57C2;stroke:#263238;stroke-miterlimit:10"></ellipse><path d="M704.57,333.18A45.76,45.76,0,0,0,692,326.24s-11.48-1.9-14.1,5.52" style="fill:none;stroke:#263238;stroke-linecap:round;stroke-miterlimit:10"></path><path d="M710.16,338.14s-.58-.63-1.63-1.61" style="fill:none;stroke:#263238;stroke-linecap:round;stroke-miterlimit:10"></path><ellipse cx="668.57" cy="375.12" rx="27.63" ry="5" style="fill:#263238"></ellipse><path d="M679.63,332.2s-13.53-2.62-13.53,6.55,9.6,16.59,13.53,27.07,11.35,10.91,15.28.43S693.17,336.57,679.63,332.2Z" style="fill:#7E57C2;stroke:#263238;stroke-miterlimit:10"></path><path d="M670.47,332.64s11.78,4.8,15.27,20.08" style="fill:#7E57C2;stroke:#263238;stroke-miterlimit:10"></path><line x1="671.34" y1="352.72" x2="671.34" y2="377.6" style="fill:none;stroke:#263238;stroke-linecap:round;stroke-miterlimit:10"></line><path d="M683.67,426.06a12.12,12.12,0,0,0,11.88-9.53,108,108,0,0,0,2.37-22.32,95.84,95.84,0,0,0-2-19.48H640.82a95.84,95.84,0,0,0-2,19.48,107.32,107.32,0,0,0,2.37,22.32,12.11,12.11,0,0,0,11.88,9.53Z" style="fill:#263238"></path><path d="M639.4,383.84c-.16,1.49-.28,3-.37,4.55h58.71c-.09-1.54-.21-3.06-.37-4.55Z" style="fill:#7a7a7a"></path><path d="M697.12,407.11c.18-1.51.34-3,.46-4.55H639.19c.12,1.52.28,3,.47,4.55Z" style="fill:#7a7a7a"></path><path d="M646,394.46a2.38,2.38,0,1,1-2.38-2.29A2.34,2.34,0,0,1,646,394.46Z" style="fill:#8c8c8c"></path><path d="M657.86,394.46a2.38,2.38,0,1,1-2.37-2.29A2.34,2.34,0,0,1,657.86,394.46Z" style="fill:#8c8c8c"></path><path d="M669.74,394.46a2.38,2.38,0,1,1-2.37-2.29A2.34,2.34,0,0,1,669.74,394.46Z" style="fill:#8c8c8c"></path><path d="M681.62,394.46a2.38,2.38,0,1,1-2.37-2.29A2.34,2.34,0,0,1,681.62,394.46Z" style="fill:#8c8c8c"></path><path d="M693.5,394.46a2.38,2.38,0,1,1-2.37-2.29A2.34,2.34,0,0,1,693.5,394.46Z" style="fill:#8c8c8c"></path></g><g id="freepik--Chopsticks--inject-2"><path d="M127,114,71.74,164.23a1.59,1.59,0,0,0,.08,2.43h0a1.6,1.6,0,0,0,2,0L214.18,46a4.22,4.22,0,0,0,.68-5.65h0a4.21,4.21,0,0,0-6.27-.67l-75.71,68.9" style="fill:none;stroke:#263238;stroke-linecap:round;stroke-linejoin:round"></path><path d="M191.41,98.66,237.5,67.35a4.21,4.21,0,0,0,1.31-5.53h0a4.22,4.22,0,0,0-6.15-1.38L82.6,168.71a1.59,1.59,0,0,0-.2,2.42h0a1.59,1.59,0,0,0,2,.2l100.11-68" style="fill:none;stroke:#263238;stroke-linecap:round;stroke-linejoin:round"></path></g><g id="freepik--Radish--inject-2"><path d="M40.4,220.13a7.8,7.8,0,0,0,1.06-2c1.2-3.68-1.27-9.25,1-12.31s8.32-2.46,11.41-4.7,4.32-8.22,8-9.41,8.07,2.91,12,2.91,8.45-4.06,12-2.91a5.49,5.49,0,0,1,2.37,1.66" style="fill:none;stroke:#263238;stroke-linecap:round;stroke-linejoin:round"></path><path d="M64.65,265.6a5.38,5.38,0,0,1-2.82,0c-3.68-1.2-4.94-7.19-8-9.41s-9.17-1.62-11.41-4.71.24-8.63-1-12.3S35,232.56,35,228.63a7.38,7.38,0,0,1,2-4.41" style="fill:none;stroke:#263238;stroke-linecap:round;stroke-linejoin:round"></path><path d="M90.06,196c1.15,1.93,2.23,4,3.76,5.1,3.09,2.24,9.17,1.61,11.42,4.7s-.24,8.63,1,12.31,6.46,6.58,6.46,10.51-5.31,7-6.46,10.52,1.27,9.25-1,12.31-8.33,2.45-11.42,4.7-4.32,8.21-8,9.41-8.07-2.92-12-2.92a12.3,12.3,0,0,0-4.59,1.23" style="fill:none;stroke:#263238;stroke-linecap:round;stroke-linejoin:round"></path><path d="M83.57,247.56a27.37,27.37,0,0,1-4,1.56,22.33,22.33,0,0,1-27.77-15,17.85,17.85,0,0,1,12-22.22,14.28,14.28,0,0,1,17.77,9.61,11.43,11.43,0,0,1-7.69,14.22,9.15,9.15,0,0,1-11.38-6.15,7.32,7.32,0,0,1,4.93-9.1,5.86,5.86,0,0,1,7.28,3.94,4.69,4.69,0,0,1-3.16,5.82,3.74,3.74,0,0,1-4.65-2.52" style="fill:none;stroke:#263238;stroke-linecap:round;stroke-linejoin:round"></path><path d="M98.3,214.4a27.92,27.92,0,0,1-9.45,29.88" style="fill:none;stroke:#263238;stroke-linecap:round;stroke-linejoin:round"></path><path d="M591.15,106.1a7.4,7.4,0,0,0,1.07-2c1.19-3.68-1.28-9.25.95-12.31s8.33-2.45,11.42-4.7,4.32-8.22,8-9.41,8.07,2.92,12,2.92,8.46-4.07,12-2.92A5.52,5.52,0,0,1,639,79.33" style="fill:none;stroke:#263238;stroke-linecap:round;stroke-linejoin:round"></path><path d="M615.4,151.57a5.28,5.28,0,0,1-2.82,0c-3.67-1.19-4.94-7.18-8-9.41s-9.17-1.61-11.42-4.7.24-8.63-.95-12.31-6.46-6.59-6.46-10.51a7.32,7.32,0,0,1,2-4.42" style="fill:none;stroke:#263238;stroke-linecap:round;stroke-linejoin:round"></path><path d="M640.81,82c1.16,1.92,2.24,4,3.77,5.09,3.09,2.25,9.16,1.61,11.41,4.7s-.24,8.63,1,12.31,6.47,6.59,6.47,10.52-5.31,7-6.47,10.51,1.28,9.25-1,12.31-8.32,2.45-11.41,4.7-4.32,8.22-8,9.41-8.07-2.92-12-2.92a12.54,12.54,0,0,0-4.59,1.23" style="fill:none;stroke:#263238;stroke-linecap:round;stroke-linejoin:round"></path><path d="M634.33,133.54a28.62,28.62,0,0,1-4.06,1.55,22.32,22.32,0,0,1-27.77-15,17.86,17.86,0,0,1,12-22.22,14.28,14.28,0,0,1,17.77,9.62,11.43,11.43,0,0,1-7.69,14.22,9.14,9.14,0,0,1-11.37-6.16,7.31,7.31,0,0,1,4.92-9.1,5.85,5.85,0,0,1,7.28,3.94,4.67,4.67,0,0,1-3.15,5.82,3.74,3.74,0,0,1-4.66-2.52" style="fill:none;stroke:#263238;stroke-linecap:round;stroke-linejoin:round"></path><path d="M649.05,100.38a27.91,27.91,0,0,1-9.45,29.88" style="fill:none;stroke:#263238;stroke-linecap:round;stroke-linejoin:round"></path></g><g id="freepik--Meat--inject-2"><path d="M476.8,63s-11,6-23,14-36,11-39,19,0,22,4,24,11,3,33-5,42-16,50-28,2-22-5-27S476.8,63,476.8,63Z" style="fill:none;stroke:#263238;stroke-linecap:round;stroke-linejoin:round"></path><path d="M416.07,94.19s-.32,10.54,1.27,17.57,5.44,6.39,13.1,4.47,19.17-5.43,30.67-9.26,21.41-10.55,30.67-16,12.78-12.46,11.5-17.89a41,41,0,0,0-2.55-8" style="fill:none;stroke:#263238;stroke-linecap:round;stroke-linejoin:round"></path><path d="M424.43,107.88c-3-3.85-4.18-9.7-2.93-11.78,1.91-3.19,11.18-6.71,11.18-6.71" style="fill:none;stroke:#263238;stroke-linecap:round;stroke-linejoin:round"></path><path d="M476.4,92.17c-3,1.52-6.4,2.92-9.86,4.25-12.46,4.79-28.43,15-35.78,15a6.79,6.79,0,0,1-3.54-1" style="fill:none;stroke:#263238;stroke-linecap:round;stroke-linejoin:round"></path><path d="M490.18,64.8V76.94c0,5.43-4.13,9.69-10.17,13.27" style="fill:none;stroke:#263238;stroke-linecap:round;stroke-linejoin:round"></path><path d="M436.19,101.63c-5.06.07-5.6-2.66,1.92-6.17,9.58-4.47,24.6-15.33,26.52-13.41s-4.16,5.11-4.16,5.11" style="fill:none;stroke:#263238;stroke-linecap:round;stroke-linejoin:round"></path><path d="M436.51,89.71s21.73-8.94,30.35-16.61,16.61-9.58,16.93-3.51,0,11.18-10.86,16.61-22.36,12.46-31.63,14.7l-1.22.27" style="fill:none;stroke:#263238;stroke-linecap:round;stroke-linejoin:round"></path></g><g id="freepik--Character--inject-2"><path d="M499.46,430.77s-11,6.47-14.35,8.16-10.14,3.66-9.58,5.92,1.41,3.66,11,4.22,12.95-1.41,19.15-.85,10.69,2.54,11.26-2.81a144.51,144.51,0,0,0,.28-14.64l-16.89-1.13Z" style="fill:#fff;stroke:#263238;stroke-linecap:round;stroke-linejoin:round"></path><path d="M475.53,444.85c.57,2.25,1.41,3.66,11,4.22s12.95-1.41,19.15-.85,10.69,2.54,11.26-2.81c.19-1.83.28-4.13.32-6.35a90.71,90.71,0,0,1-16.65,2.69c-12.39.84-15.48-2.82-15.48-2.82C481.73,440.62,475,442.59,475.53,444.85Z" style="fill:#263238;stroke:#263238;stroke-linecap:round;stroke-linejoin:round"></path><path d="M498.34,423.17s-.85,5.35,0,6.75,7.6,3.66,11.26,3.66a12.2,12.2,0,0,0,7.6-2.81c.84-.85.84-4.79,1.13-5.63S507.35,426,498.34,423.17Z" style="fill:#7E57C2;stroke:#263238;stroke-linecap:round;stroke-linejoin:round"></path><path d="M573.22,427.67s-1.69,14.36-1.69,19.15,8.17,9,13.8,8.16,9.57-6.19,8.72-12.39-5.63-12.95-5.63-14.35a33.29,33.29,0,0,0-1.12-5.35l-14.64,2Z" style="fill:#fff;stroke:#263238;stroke-linecap:round;stroke-linejoin:round"></path><path d="M588.42,441.47c-1.4,4.5-9,3.94-12.1,1.41s-3.38-12.67-3.38-12.67h0c-.48,4.34-1.4,13.08-1.4,16.62,0,4.78,8.17,9,13.8,8.16s9.57-6.19,8.72-12.39-5.63-12.95-5.63-14.35C588.42,428.24,589.83,437,588.42,441.47Z" style="fill:#263238;stroke:#263238;stroke-linecap:round;stroke-linejoin:round"></path><path d="M570.41,426.27s.56,3.65,3.66,5.06,9.85,1.13,12.66-1.12S589,424,589,424,574.63,427.11,570.41,426.27Z" style="fill:#7E57C2;stroke:#263238;stroke-linecap:round;stroke-linejoin:round"></path><path d="M487.64,345.75s-1.13,10.42.56,16.05a95.12,95.12,0,0,1,2.54,11s-.57,19.42,1.69,31.24.84,19.15,3.37,21.4,12.39,2.82,19.15,2.82,7.88-7,8.44-11,1.13-38.85,1.13-38.85l3.94-24.5,3.38-13.23,5.35-11.54L546.48,357s12.95,44.48,14.92,52.36,1.41,12.95,4.78,16.05,11.26,4.22,18.3,2,8.45-5.63,9-12.1,2.25-40.82,2.25-49.27-2.53-22-2.53-23.37,1.41-27.59-.56-45S587.58,272,587.58,272s-14.08,11.26-44.48,12.39-52.36-9-52.36-9-1.41,27.59-.85,28.71S487.64,345.75,487.64,345.75Z" style="fill:#7E57C2;stroke:#263238;stroke-linecap:round;stroke-linejoin:round"></path><polygon points="547.94 362.72 570.07 353.55 546.48 357.01 547.94 362.72" style="fill:#263238;stroke:#263238;stroke-linecap:round;stroke-linejoin:round"></polygon><polygon points="503.42 353.01 526.63 361.64 528.24 355.98 503.42 353.01" style="fill:#263238;stroke:#263238;stroke-linecap:round;stroke-linejoin:round"></polygon><path d="M488.77,266.36l-.29,7.32s-1.4,2.25-.56,3.66l.85,1.41s-3.95,24.77-4.23,40.26-1.41,30.12-1.41,30.12,14.36,2.81,23.93,4.78,27,7,41.67,4.51,37.16-7.32,37.16-7.32-1.69-36.88-5.07-50.68-3.66-18.29-3.66-18.29,10.7-6.76,11.55-8.17,0-6.19-.57-7-2.25,0-8.72,2.26-41.11,9-56.31,7.88S488.77,266.36,488.77,266.36Z" style="fill:#fff;stroke:#263238;stroke-linecap:round;stroke-linejoin:round"></path><path d="M568.76,284.94A117,117,0,0,1,547,290.57" style="fill:none;stroke:#263238;stroke-linecap:round;stroke-linejoin:round"></path><path d="M574.63,282.69s-1.06.45-2.89,1.15" style="fill:none;stroke:#263238;stroke-linecap:round;stroke-linejoin:round"></path><path d="M518.69,286.38a91,91,0,0,0,10.9.53" style="fill:none;stroke:#263238;stroke-linecap:round;stroke-linejoin:round"></path><path d="M489.89,276.78s9,6.82,26.2,9.27" style="fill:none;stroke:#263238;stroke-linecap:round;stroke-linejoin:round"></path><path d="M501.42,286.76a62.8,62.8,0,0,0,6.21,2.12" style="fill:none;stroke:#263238;stroke-linecap:round;stroke-linejoin:round"></path><path d="M491,280.72s2.52,2.52,8.41,5.19" style="fill:none;stroke:#263238;stroke-linecap:round;stroke-linejoin:round"></path><path d="M537.67,281.6c7.24-.44,21-1.66,31.61-4.82" style="fill:none;stroke:#263238;stroke-linecap:round;stroke-linejoin:round"></path><path d="M532.68,281.84s.93,0,2.54-.1" style="fill:none;stroke:#263238;stroke-linecap:round;stroke-linejoin:round"></path><path d="M513,166.14s-19.71,4.22-24.5,7-5.91,9.29-6.75,9.85-7.6.56-8.73,2.82a19.91,19.91,0,0,0-1.41,5.06c-.28.85-3.66,1.69-3.66,4.23s-.84,11.26-.84,11.26,7.6-3.38,14.64-1.69,3.38,4.5,3.38,4.5v44.48c0,9.86-1.69,13.23,1.12,14.92s23.65,11.83,41.67,11.55,39.13-2.82,47-6.48,15.48-5.91,16.33-8.73,2-5.06-.28-9.29-3.66-24.77-3.66-24.77,5.07-8.45,6.19-8.45,5.07,2.54,7.6-.84,4.51-4.51,3.1-10.42-4.22-10.13-3.94-12.67,1.69-7.6,1.41-10.69a17.16,17.16,0,0,0-2-5.92,23.47,23.47,0,0,0-9.85-13.79c-7.88-5.07-31.25-6.29-31.25-6.29Z" style="fill:#fff;stroke:#263238;stroke-linecap:round;stroke-linejoin:round"></path><path d="M595.83,197.49a12.32,12.32,0,0,1,2.45,2.3" style="fill:none;stroke:#263238;stroke-linecap:round;stroke-linejoin:round"></path><path d="M598.07,190.32s-20.81,1.44-17.3,2.88c2.49,1,7.82.8,12.47,2.83" style="fill:none;stroke:#263238;stroke-linecap:round;stroke-linejoin:round"></path><path d="M526.65,177.9s13.92-3.5,19.73-9.32,11.08-5.44,12.2-6.76-.56-6.75-4.13-8.82-9.38-.56-12-.56-14.07,1.5-20.64,2.25-11.08,1.69-12.39,5.82-3,5.07.19,6.94a65.92,65.92,0,0,1,10.7,7.89C522.74,177.78,526.65,177.9,526.65,177.9Z" style="fill:#7E57C2;stroke:#263238;stroke-linecap:round;stroke-linejoin:round"></path><path d="M551.69,132.88s11.71,0,11.71,1.84a1.8,1.8,0,0,1-1.84,1.84s4.14,4.59,1.38,5.05l-2.76.46s.69,2.52-.46,3a3.38,3.38,0,0,1-2.29,0s1.38.92.23,1.84-2.07,1.15-3.22-.46a89.77,89.77,0,0,1-4.13-8.27Z" style="fill:#fff;stroke:#263238;stroke-linecap:round;stroke-linejoin:round"></path><path d="M514.25,113.36s-5.05,3-6.43,12.17,1.15,20.21,2.07,22.05,4.59,9.65,4.59,9.65-.92,4.82,1.15,8.49,6.89,12.18,11,12.18,14.24-9.65,16.31-12.64,5-8,5-8l.23-10.11s3-2.76,3-6.2-.92-11.94-.92-11.94-1.84-12.64-10.11-17.69S516.78,108.77,514.25,113.36Z" style="fill:#fff;stroke:#263238;stroke-linecap:round;stroke-linejoin:round"></path><path d="M527.89,137.46s4.26-1,6.23,1" style="fill:none;stroke:#263238;stroke-linecap:round;stroke-linejoin:round"></path><path d="M509.69,139.1s2.63-1,4.1-.33" style="fill:none;stroke:#263238;stroke-linecap:round;stroke-linejoin:round"></path><path d="M539.28,129.21s-.46,8.49.46,9.18,3,.69,3.45-.23,1.15-7.12,1.15-7.12Z" style="fill:#263238;stroke:#263238;stroke-linecap:round;stroke-linejoin:round"></path><path d="M507.5,128.73c2.89-2,8.7-4.28,19.15-2.28,15.51,3,23.34,10.07,24.43,11.11-.26-3.84-.77-8.58-.77-8.58s-1.84-12.64-10.11-17.69-23.42-2.52-26,2.07c0,0-5.05,3-6.43,12.17C507.66,126.58,507.56,127.65,507.5,128.73Z" style="fill:#fff;stroke:#263238;stroke-linecap:round;stroke-linejoin:round"></path><path d="M543.88,135.64s6.2-6.43,8-3.68-.46,12.17-3,14-4.82-1.15-4.82-1.15" style="fill:#fff;stroke:#263238;stroke-linecap:round;stroke-linejoin:round"></path><path d="M516.32,132l1.83,4.37s-4.13,5.28-2.29,6.66a8.27,8.27,0,0,0,3.21,1.6" style="fill:none;stroke:#263238;stroke-linecap:round;stroke-linejoin:round"></path><path d="M514.94,147.58s6.2,5,13.55-3.22" style="fill:none;stroke:#263238;stroke-linecap:round;stroke-linejoin:round"></path><path d="M523.9,135.64a8.94,8.94,0,0,1,8.49-2.3" style="fill:none;stroke:#263238;stroke-linecap:round;stroke-linejoin:round"></path><path d="M514.94,136.1a5.75,5.75,0,0,0-6-.23" style="fill:none;stroke:#263238;stroke-linecap:round;stroke-linejoin:round"></path><path d="M521.83,129.89a8.22,8.22,0,0,1,9.19-1.14" style="fill:none;stroke:#263238;stroke-linecap:round;stroke-linejoin:round"></path><path d="M514.71,131s-3.22-2.52-5.51.46" style="fill:none;stroke:#263238;stroke-linecap:round;stroke-linejoin:round"></path><path d="M515.4,158.14s2.29,4.37,6.66,5.29,12.86-7.12,12.86-7.12" style="fill:none;stroke:#263238;stroke-linecap:round;stroke-linejoin:round"></path><path d="M529.8,134.41a1.12,1.12,0,1,1-1.11-1.12A1.12,1.12,0,0,1,529.8,134.41Z" style="fill:#263238"></path><path d="M514.4,136.51a.93.93,0,1,1-.93-.93A.93.93,0,0,1,514.4,136.51Z" style="fill:#263238"></path><path d="M477.79,188.1s9,1.69,12.1,5.91,3.66,5.91,3.66,5.91.28-7.6-4.5-12.39" style="fill:none;stroke:#263238;stroke-linecap:round;stroke-linejoin:round"></path><path d="M523.55,186.22a116.81,116.81,0,0,0-2.69,14" style="fill:none;stroke:#263238;stroke-linecap:round;stroke-linejoin:round"></path><path d="M524.8,181.62s-.27.9-.68,2.43" style="fill:none;stroke:#263238;stroke-linecap:round;stroke-linejoin:round"></path><path d="M521.11,265.93a58.18,58.18,0,0,0,1.44,6.62" style="fill:none;stroke:#263238;stroke-linecap:round;stroke-linejoin:round"></path><path d="M518.61,227s0,20.87,2.06,36" style="fill:none;stroke:#263238;stroke-linecap:round;stroke-linejoin:round"></path><path d="M565.9,212s-2.81.84-12.95.28-28.43-8.17-34.06-12.11-15.2-7-18.3-7-5.91,3.37-6.76,4.5-4.5,3.1-4.5,4.5,3.94,2,6.19,3.1,16.33,6.76,25.06,12.39,25.33,15.76,45,20.55,26.46-1.69,27.59-6.19,2-7.61-7.32-15.21A24.06,24.06,0,0,0,565.9,212Z" style="fill:#fff;stroke:#263238;stroke-linecap:round;stroke-linejoin:round"></path><path d="M567.59,189.79l2,2.25s-5.07,2.25-4.22,5.35a15.51,15.51,0,0,1,.59,5.29s-1.72.9-1.72,1.75,2.54,6.47,2.54,6.47" style="fill:none;stroke:#263238;stroke-linecap:round;stroke-linejoin:round"></path><path d="M564.21,204.43s-3.86,6.5-2.46,7.63,9.22-1.44,15.69,2.5,12.95,14.36,13.52,18,.84,5.35,3.66,1.12,8.72-5.91,6.47-12.1A30.05,30.05,0,0,0,582,203.3C570.69,199.64,564.21,204.43,564.21,204.43Z" style="fill:#fff;stroke:#263238;stroke-linecap:round;stroke-linejoin:round"></path><path d="M468.5,218.78s-4.79.57-5.07-3.09-3.1-9.86-2.25-13.8,6.47-7.6,15.48-7.6,14.64,3.94,16.33,7.32,3.38,5.35,2,6.19-12.11,1.13-17.17,3.95A47.92,47.92,0,0,0,468.5,218.78Z" style="fill:#fff;stroke:#263238;stroke-linecap:round;stroke-linejoin:round"></path><path d="M491,202.46s-14.64.28-20.84,2.81-3.65,10.7-2.81,16.33,20.27,5.07,31.53,2,36.6-10.7,38.85-11.54a26.81,26.81,0,0,1,5.91-1.13l9.29,1.41s.57-3.38-.56-4.51-5.91-3.66-7.88-5.06-7.6-2.26-12.39-2.26S491,202.46,491,202.46Z" style="fill:#fff;stroke:#263238;stroke-linecap:round;stroke-linejoin:round"></path></g><g id="freepik--Ramen--inject-2"><ellipse cx="276.3" cy="425.99" rx="98.36" ry="40.5" style="fill:#263238;stroke:#263238;stroke-linecap:round;stroke-linejoin:round"></ellipse><path d="M462.3,291H90.3s-5.17,10.57,47.94,113.67c10.31,27.09,68.2,47.83,138.06,47.83,68.83,0,126-20.13,137.57-46.63h.5S451.81,342.1,462.3,291Z" style="fill:#263238;stroke:#263238;stroke-linecap:round;stroke-linejoin:round"></path><ellipse cx="276.3" cy="290.99" rx="186" ry="63.5" style="fill:#fff;stroke:#263238;stroke-linecap:round;stroke-linejoin:round"></ellipse><ellipse cx="276.3" cy="290.99" rx="181" ry="59.5" style="fill:#fff;stroke:#263238;stroke-linecap:round;stroke-linejoin:round"></ellipse><path d="M230.64,261.42s-5.34-26.93-5.34-42.93v-31s51,7,89,10,113-4,113-4-1.16,30.14,0,44-11,45-11,45S295,245.35,230.64,261.42Z" style="fill:#7E57C2;stroke:#263238;stroke-linecap:round;stroke-linejoin:round"></path><path d="M417.89,202.08a1.92,1.92,0,1,1-1.9-1.67A1.8,1.8,0,0,1,417.89,202.08Z" style="fill:none;stroke:#263238;stroke-linecap:round;stroke-linejoin:round"></path><ellipse cx="416.7" cy="210.07" rx="0.95" ry="1.07" style="fill:none;stroke:#263238;stroke-linecap:round;stroke-linejoin:round"></ellipse><path d="M409.31,206.73a1.43,1.43,0,1,1-1.43-1.55A1.5,1.5,0,0,1,409.31,206.73Z" style="fill:none;stroke:#263238;stroke-linecap:round;stroke-linejoin:round"></path><circle cx="411.57" cy="216.03" r="1.07" style="fill:none;stroke:#263238;stroke-linecap:round;stroke-linejoin:round"></circle><path d="M422,218.41a.84.84,0,1,1-.84-.83A.83.83,0,0,1,422,218.41Z" style="fill:none;stroke:#263238;stroke-linecap:round;stroke-linejoin:round"></path><circle cx="408.95" cy="228.43" r="1.31" style="fill:none;stroke:#263238;stroke-linecap:round;stroke-linejoin:round"></circle><circle cx="378.3" cy="205.18" r="2.38" style="fill:none;stroke:#263238;stroke-linecap:round;stroke-linejoin:round"></circle><path d="M393.33,204.22a1.2,1.2,0,1,1-1.19-1.19A1.19,1.19,0,0,1,393.33,204.22Z" style="fill:none;stroke:#263238;stroke-linecap:round;stroke-linejoin:round"></path><path d="M395.48,215.79a1.08,1.08,0,1,1-1.08-1.07A1.07,1.07,0,0,1,395.48,215.79Z" style="fill:none;stroke:#263238;stroke-linecap:round;stroke-linejoin:round"></path><path d="M249.28,198.74a1,1,0,0,1-1.91,0,1,1,0,1,1,1.91,0Z" style="fill:none;stroke:#263238;stroke-linecap:round;stroke-linejoin:round"></path><path d="M264.31,199a1.67,1.67,0,1,1-1.67-1.67A1.67,1.67,0,0,1,264.31,199Z" style="fill:none;stroke:#263238;stroke-linecap:round;stroke-linejoin:round"></path><path d="M259.06,207.8a1.91,1.91,0,1,1-1.91-1.91A1.91,1.91,0,0,1,259.06,207.8Z" style="fill:none;stroke:#263238;stroke-linecap:round;stroke-linejoin:round"></path><circle cx="249.64" cy="214.12" r="1.31" style="fill:none;stroke:#263238;stroke-linecap:round;stroke-linejoin:round"></circle><circle cx="276.83" cy="206.25" r="1.55" style="fill:none;stroke:#263238;stroke-linecap:round;stroke-linejoin:round"></circle><path d="M270.27,216a.36.36,0,1,1-.36-.36A.36.36,0,0,1,270.27,216Z" style="fill:none;stroke:#263238;stroke-linecap:round;stroke-linejoin:round"></path><path d="M276.3,350.49c82.26,0,151.69-18,173.71-42.74-10.51-29.44-84.27-52.26-173.71-52.26s-163.2,22.82-173.71,52.26C124.61,332.45,194,350.49,276.3,350.49Z" style="fill:#fff;stroke:#263238;stroke-linecap:round;stroke-linejoin:round"></path><path d="M394,294a2.59,2.59,0,0,1-.48,0,3,3,0,0,1-2.48-3.43c1.1-6.88-.05-12.49-3.44-16.67-6.39-7.88-18.8-8.57-18.93-8.58a3,3,0,0,1,.28-6c.61,0,15.17.79,23.28,10.76,4.53,5.57,6.12,12.78,4.73,21.43A3,3,0,0,1,394,294Z" style="fill:#fff;stroke:#263238;stroke-linecap:round;stroke-linejoin:round"></path><path d="M387.85,295.36a2.77,2.77,0,0,1-.49,0,3,3,0,0,1-2.48-3.44c1.11-6.88-.05-12.48-3.43-16.66-6.4-7.89-18.81-8.58-18.93-8.58a3,3,0,0,1,.27-6c.62,0,15.17.79,23.29,10.77,4.53,5.57,6.12,12.77,4.72,21.43A3,3,0,0,1,387.85,295.36Z" style="fill:#fff;stroke:#263238;stroke-linecap:round;stroke-linejoin:round"></path><path d="M381.66,296.68a3.87,3.87,0,0,1-.48,0,3,3,0,0,1-2.49-3.44c1.12-6.89-.05-12.51-3.45-16.69-6.44-7.91-18.78-8.55-18.9-8.56a3,3,0,0,1,.27-6c.61,0,15.17.79,23.28,10.76,4.53,5.57,6.12,12.78,4.73,21.43A3,3,0,0,1,381.66,296.68Z" style="fill:#fff;stroke:#263238;stroke-linecap:round;stroke-linejoin:round"></path><path d="M375.47,298a2.67,2.67,0,0,1-.48,0,3,3,0,0,1-2.48-3.44c1.11-6.89-.05-12.5-3.46-16.68-6.43-7.92-18.77-8.56-18.9-8.56a3,3,0,0,1,.27-6c.62,0,15.17.79,23.29,10.77,4.53,5.57,6.12,12.78,4.72,21.43A3,3,0,0,1,375.47,298Z" style="fill:#fff;stroke:#263238;stroke-linecap:round;stroke-linejoin:round"></path><path d="M318.25,270.52c-7.39,0-15-2.7-23.69-5.77s-18.3-6.49-30.05-8.16c-22.94-3.28-29.45,9.79-29.51,9.92a3,3,0,0,1-5.42-2.58c.34-.7,8.52-17.18,35.78-13.28,12.34,1.76,22.36,5.31,31.2,8.44,9.49,3.36,17,6,23.94,5.32a3,3,0,0,1,.6,6C320.15,270.48,319.2,270.52,318.25,270.52Z" style="fill:#fff;stroke:#263238;stroke-linecap:round;stroke-linejoin:round"></path><path d="M321.79,274.94c-7.4,0-15-2.7-23.7-5.77s-18.29-6.49-30-8.17c-23-3.27-29.45,9.8-29.52,9.93a3,3,0,1,1-5.41-2.58c.33-.7,8.52-17.18,35.78-13.29,12.34,1.77,22.36,5.32,31.2,8.45,9.49,3.36,17,6,23.94,5.32a3,3,0,0,1,.59,6A26.87,26.87,0,0,1,321.79,274.94Z" style="fill:#fff;stroke:#263238;stroke-linecap:round;stroke-linejoin:round"></path><path d="M326.65,279.36c-7.4,0-15-2.7-23.7-5.78s-18.29-6.48-30-8.16c-23-3.28-29.45,9.8-29.52,9.93a3,3,0,1,1-5.41-2.58c.33-.7,8.52-17.19,35.78-13.29,12.34,1.77,22.36,5.32,31.2,8.45,9.49,3.36,17,6,23.94,5.32a3,3,0,1,1,.59,6A26.87,26.87,0,0,1,326.65,279.36Z" style="fill:#fff;stroke:#263238;stroke-linecap:round;stroke-linejoin:round"></path><path d="M328,282c-7.39,0-15-2.7-23.69-5.78s-18.3-6.48-30-8.16c-22.94-3.27-29.45,9.8-29.51,9.93a3,3,0,0,1-5.42-2.58c.34-.7,8.52-17.18,35.78-13.29,12.34,1.77,22.36,5.32,31.2,8.45,9.49,3.36,17,6,23.94,5.32a3,3,0,1,1,.6,6A27.19,27.19,0,0,1,328,282Z" style="fill:#fff;stroke:#263238;stroke-linecap:round;stroke-linejoin:round"></path><path d="M286.48,348.14A169.15,169.15,0,0,1,262,346c-2.35-.33-4.37-.63-6.1-.82-3.59-.4-10.4-1.38-18.28-2.52-16.43-2.38-43.94-6.35-48.13-5.52a3,3,0,1,1-1.18-5.88c2.19-.44,7.49-.11,15,.72a6.56,6.56,0,0,1-1.67-2c-.63-1.2-1.37-3.68.78-6.79,3-4.37,10.19-6.21,20.06-6.5a12.78,12.78,0,0,1-2.59-1.3c-6.05-4-6-8-5.41-10,1.6-5.55,10.22-8.45,26.33-8.86,10.9-.29,24,1.91,37.84,4.23,20.17,3.39,41,6.88,59.07,3.81,3-.51,5-1,6.48-1.38-7-2-23.95-4.26-40.72-4.67-58-1.41-63.63-5.71-64.6-10.38-.93-4.41,4.64-7,6.73-8,11.83-5.54,29.66-1.74,48.54,2.3C310.81,286,328,289.62,339.3,286l.51-.16c-4.36-1.37-12.64-2.9-19.1-4.09-22.12-4.09-35.7-7-36.14-14a5.77,5.77,0,0,1,1.87-4.61c8.32-8.11,52.59-4.67,61.39-3.9a3,3,0,0,1-.53,6c-.13,0-13.74-1.19-27.74-1.31-23.64-.22-28.15,2.74-28.9,3.49,2.44,3.18,21,6.62,31.14,8.49,19.31,3.57,26,5,26.31,9.7.25,3.82-4.62,5.4-6.95,6.16-12.82,4.16-30.83.31-48.25-3.41-17.08-3.64-34.74-7.41-44.74-2.73a18.39,18.39,0,0,0-2.7,1.5c3.21,1.64,15.1,4.41,58.17,5.46a260.42,260.42,0,0,1,30.94,2.61c14.94,2.27,18.09,4.69,18.32,7.85.3,4.2-5,5.93-14.17,7.49-19.05,3.25-41.37-.5-61.06-3.8-13.56-2.27-26.38-4.41-36.7-4.16-19,.49-20.7,4.49-20.72,4.53-.1.35.51,1.67,3,3.31,4.61,3.08,21.32,2.71,37.47,2.35,8.84-.2,18-.4,26.94-.18,6.83.16,13.91,0,20.15-.17,18.36-.45,27.28-.44,29.54,4.63,1.67,3.74-1.78,7.39-2.92,8.59-3.57,3.78-8.4,5.78-14.1,6.63a4,4,0,0,1,2.2,2.71c.95,3.79-3.77,6.08-6.31,7.31C306.75,346.76,296.26,348.14,286.48,348.14Zm-40.27-10.36c4.43.64,8.08,1.14,10.35,1.39,1.83.2,3.9.5,6.29.85,13.53,1.94,34,4.88,50.74-3.24l.19-.09c-7-.65-22-.06-33.51.39-9.21.36-18.74.74-26.71.74Q249.72,337.82,246.21,337.78ZM207,327.19c.3.39,2.37,2.33,13.9,3.51,7.57.77,17.64,1.12,32.65,1.12,7.86,0,17.32-.37,26.47-.73,4.65-.19,8.8-.34,12.51-.45-3.21-.52-6.47-1.09-9.77-1.66-5.18-.9-10.53-1.84-15.61-2.52-17.73-2.4-54.64-7.39-59.8.07A2.47,2.47,0,0,0,207,327.19Zm47.69-8.39c4.29.52,8.73,1.1,13.27,1.71,5.18.7,10.6,1.65,15.83,2.56,18.87,3.29,38.38,6.69,46.25-1.64a9.78,9.78,0,0,0,1.59-2.08c-2.75-1.54-14.79-1.25-23.7-1-6.32.16-13.47.33-20.45.16-8.81-.21-17.88,0-26.66.19Z" style="fill:#fff;stroke:#263238;stroke-linecap:round;stroke-linejoin:round"></path><path d="M278.83,323.8c-9.43,0-19.84-2.64-31.63-9.9-24.41-15-44.79-6.07-45.65-5.68a3,3,0,0,1-2.51-5.45c1-.45,24.05-10.78,51.31,6,23.93,14.75,40.52,9,61.35-.68,15.81-7.37,24.33-6.12,31.83-5a57.17,57.17,0,0,0,6,.68,3,3,0,0,1-.28,6c-2.31-.11-4.5-.43-6.61-.74-7-1-14.24-2.1-28.43,4.52C303.64,318.48,292.22,323.8,278.83,323.8Z" style="fill:#fff;stroke:#263238;stroke-linecap:round;stroke-linejoin:round"></path><path d="M296.25,304.81c-9.64,0-20.63-2.34-33.24-5-8.29-1.76-17.69-3.76-27.83-5.32-30.92-4.76-45.19-.29-47.58,1.15a3,3,0,0,1-5.63-1.45,3.8,3.8,0,0,1,1.48-2.94c4.12-3.54,22.06-7.4,52.64-2.69,10.31,1.58,19.8,3.6,28.17,5.38,19.44,4.14,34.8,7.41,46.12,2.19,17.46-8.06,47.41-14,48.68-14.22a3,3,0,0,1,1.15,5.89c-.3.06-30.52,6-47.32,13.78A39,39,0,0,1,296.25,304.81Z" style="fill:#fff;stroke:#263238;stroke-linecap:round;stroke-linejoin:round"></path><path d="M263.79,342.74c-17.68,0-32-8.75-45.9-17.32l-1.16-.7c-18.64-11.43-27.78-4.3-27.87-4.23a3,3,0,0,1-3.78-4.66c.5-.41,12.57-9.85,34.79,3.77l1.15.71c20.24,12.42,39.36,24.14,68.63,9.82,31.69-15.51,44.92-18.19,54.45-11a3,3,0,1,1-3.6,4.8c-6.12-4.58-16-4.15-48.21,11.63C281.75,340.68,272.37,342.74,263.79,342.74Z" style="fill:#fff;stroke:#263238;stroke-linecap:round;stroke-linejoin:round"></path><path d="M243.55,107.52l-29,193.74,7.78-1.77,34.18-190a5.37,5.37,0,0,0-4.77-6.29l-2.35-.22A5.35,5.35,0,0,0,243.55,107.52Z" style="fill:#fff;stroke:#263238;stroke-linecap:round;stroke-linejoin:round"></path><path d="M204.29,107.63l6.53,195.8,7.33-3.15-.79-193a5.36,5.36,0,0,0-5.82-5.32l-2.36.2A5.35,5.35,0,0,0,204.29,107.63Z" style="fill:#fff;stroke:#263238;stroke-linecap:round;stroke-linejoin:round"></path><path d="M237.83,268.27s0,22.18-23.31,33-50.05,0-58.58-9.1Z" style="fill:#fff;stroke:#263238;stroke-linecap:round;stroke-linejoin:round"></path><path d="M184.7,238.82c16.12-5.71,34.19-5.11,45.94,5.18,18,15.74,4.5,47.22-29.23,55.09s-54-6.75-51.72-23.62S167.16,245,184.7,238.82Z" style="fill:#fff;stroke:#263238;stroke-linecap:round;stroke-linejoin:round"></path><ellipse cx="201.97" cy="261.42" rx="28.67" ry="17.43" style="fill:#7E57C2;stroke:#263238;stroke-linecap:round;stroke-linejoin:round"></ellipse><path d="M116.21,295.54s0,22.18,23.32,33,50,0,58.57-9.1Z" style="fill:#fff;stroke:#263238;stroke-linecap:round;stroke-linejoin:round"></path><path d="M169.34,266.08c-16.12-5.7-34.19-5.1-45.94,5.18-18,15.74-4.5,47.22,29.23,55.09s54-6.74,51.72-23.61S186.88,272.29,169.34,266.08Z" style="fill:#fff;stroke:#263238;stroke-linecap:round;stroke-linejoin:round"></path><ellipse cx="152.07" cy="288.69" rx="28.67" ry="17.43" style="fill:#7E57C2;stroke:#263238;stroke-linecap:round;stroke-linejoin:round"></ellipse><path d="M206.13,313.91a3,3,0,0,1-2.36-4.84c.22-.28,5.52-6.87,21.5-13.72,8.86-3.79,17.57-2.83,25.25-2,6.16.68,11.48,1.27,15-.9,3.35-2.07,5.08-3.73,5.15-4.94.11-1.86-2.91-5.24-9-10-11.13-8.83-24-2-24.09-1.93a3,3,0,0,1-2.87-5.27c.66-.36,16.48-8.77,30.69,2.49,6.95,5.51,11.51,10.19,11.23,15.1-.26,4.34-4.18,7.33-8,9.69-5.28,3.27-11.85,2.54-18.82,1.76-7.28-.8-14.82-1.64-22.23,1.54-14.35,6.15-19.11,11.87-19.16,11.93A3,3,0,0,1,206.13,313.91Z" style="fill:#fff;stroke:#263238;stroke-linecap:round;stroke-linejoin:round"></path><path d="M223.82,310.81a3,3,0,0,1-1.82-5.38c.42-.31,4.38-3.11,16.15-5.83,6.77-1.56,12.77-.5,18.06.44,4,.7,7.42,1.31,10,.51,8.73-2.73,12.2-7.36,11.59-15.47s-14-14.26-19.14-15.93a3,3,0,0,1,1.86-5.7c.91.29,22.25,7.41,23.27,21.18.8,10.84-4.51,18.12-15.79,21.64-4,1.25-8.28.48-12.84-.32-4.95-.88-10.08-1.79-15.66-.5-10.44,2.41-13.9,4.78-13.94,4.81A3,3,0,0,1,223.82,310.81Z" style="fill:#fff;stroke:#263238;stroke-linecap:round;stroke-linejoin:round"></path><path d="M248.2,315.68a3,3,0,0,1-.59-5.95c.14,0,13.33-2.66,23.86-4.42l1.5-.25c9.28-1.51,11.48-1.87,13.25-13.58,1.92-12.62-11.89-22.64-12-22.74a3,3,0,1,1,3.49-4.88c.69.49,16.93,12.3,14.48,28.51-2.33,15.36-7.56,16.88-18.22,18.62l-1.49.24c-10.43,1.74-23.53,4.36-23.66,4.39A3,3,0,0,1,248.2,315.68Z" style="fill:#fff;stroke:#263238;stroke-linecap:round;stroke-linejoin:round"></path><path d="M279.47,316.57a3,3,0,0,1-1.23-5.73c13-5.89,13.87-8.67,15-18.39,1.14-9.51-7.16-18.72-7.25-18.81a3,3,0,0,1,4.42-4.06c.42.46,10.26,11.31,8.79,23.59s-3.95,16.55-18.53,23.14A3,3,0,0,1,279.47,316.57Z" style="fill:#fff;stroke:#263238;stroke-linecap:round;stroke-linejoin:round"></path><path d="M284.33,320.12a7.15,7.15,0,0,1-.76,0,3,3,0,0,1,.63-6c.34,0,9.33.52,14.52-14.77,5.38-15.84-3.37-23.13-3.46-23.2a3,3,0,0,1,3.77-4.68c.49.41,12.09,10,5.37,29.81C298.42,318.88,287.34,320.12,284.33,320.12Z" style="fill:#fff;stroke:#263238;stroke-linecap:round;stroke-linejoin:round"></path><path d="M339,279.8c-7.4,0-15-2.7-23.7-5.77s-18.29-6.49-30-8.17c-22.95-3.27-29.45,9.8-29.51,9.93a3,3,0,0,1-5.42-2.58c.33-.7,8.52-17.18,35.78-13.29,12.34,1.77,22.36,5.32,31.2,8.45,9.49,3.36,17,6,23.94,5.32a3,3,0,1,1,.59,6A26.87,26.87,0,0,1,339,279.8Z" style="fill:#fff;stroke:#263238;stroke-linecap:round;stroke-linejoin:round"></path><path d="M342.55,284.22c-7.39,0-15-2.7-23.69-5.78s-18.3-6.48-30.05-8.16c-22.94-3.28-29.45,9.8-29.51,9.93a3,3,0,0,1-5.42-2.58c.34-.7,8.52-17.19,35.78-13.29,12.34,1.76,22.36,5.32,31.2,8.45,9.49,3.36,17,6,23.94,5.32a3,3,0,1,1,.6,6A27.19,27.19,0,0,1,342.55,284.22Z" style="fill:#fff;stroke:#263238;stroke-linecap:round;stroke-linejoin:round"></path><path d="M347.41,288.64c-7.39,0-15-2.7-23.69-5.78s-18.3-6.48-30.05-8.16c-22.94-3.28-29.45,9.79-29.51,9.93a3,3,0,0,1-5.42-2.58c.34-.71,8.52-17.19,35.78-13.29,12.34,1.76,22.36,5.31,31.2,8.45,9.49,3.36,17,6,23.94,5.32a3,3,0,1,1,.6,6C349.31,288.59,348.36,288.64,347.41,288.64Z" style="fill:#fff;stroke:#263238;stroke-linecap:round;stroke-linejoin:round"></path><path d="M348.74,291.29c-7.4,0-15-2.7-23.7-5.78s-18.29-6.48-30-8.16c-22.95-3.28-29.45,9.8-29.51,9.93a3,3,0,0,1-5.42-2.58c.33-.7,8.52-17.19,35.78-13.29,12.34,1.76,22.36,5.31,31.2,8.45,9.49,3.36,17,6,23.94,5.32a3,3,0,0,1,.59,6A26.87,26.87,0,0,1,348.74,291.29Z" style="fill:#fff;stroke:#263238;stroke-linecap:round;stroke-linejoin:round"></path><path d="M241,309.53s-6.85,1.87-5.91,4.36,4,6.53,7.46,6.53,9-3.11,9.65-6.22S246.59,307.36,241,309.53Z" style="fill:#7E57C2;stroke:#263238;stroke-linecap:round;stroke-linejoin:round"></path><path d="M244.47,318.4c-.82-2.69-11.46-8.32-7.57-3C238.45,317.52,241.86,319.63,244.47,318.4Z" style="fill:#7E57C2;stroke:#263238;stroke-linecap:round;stroke-linejoin:round"></path><path d="M276,329.56s-6.85,1.87-5.91,4.36,4,6.53,7.47,6.53,9-3.11,9.64-6.22S281.55,327.38,276,329.56Z" style="fill:#7E57C2;stroke:#263238;stroke-linecap:round;stroke-linejoin:round"></path><path d="M279.43,338.42c-.82-2.68-11.46-8.32-7.57-3C273.41,337.54,276.82,339.66,279.43,338.42Z" style="fill:#7E57C2;stroke:#263238;stroke-linecap:round;stroke-linejoin:round"></path><path d="M200.53,327.83s-6.77,1.84-5.85,4.31,4,6.46,7.39,6.46,8.93-3.08,9.55-6.15S206.08,325.67,200.53,327.83Z" style="fill:#7E57C2;stroke:#263238;stroke-linecap:round;stroke-linejoin:round"></path><path d="M204,336.6c-.81-2.66-11.35-8.24-7.49-3C198,335.73,201.4,337.82,204,336.6Z" style="fill:#7E57C2;stroke:#263238;stroke-linecap:round;stroke-linejoin:round"></path><path d="M215.33,310.8s-5.84,1.59-5.05,3.71,3.45,5.57,6.37,5.57,7.7-2.65,8.23-5.3S220.1,308.94,215.33,310.8Z" style="fill:#7E57C2;stroke:#263238;stroke-linecap:round;stroke-linejoin:round"></path><path d="M218.29,318.35c-.69-2.28-9.77-7.09-6.45-2.55C213.16,317.61,216.07,319.41,218.29,318.35Z" style="fill:#7E57C2;stroke:#263238;stroke-linecap:round;stroke-linejoin:round"></path><path d="M249.67,322.34s5.84,1.59,5,3.71-3.45,5.58-6.37,5.58-7.69-2.66-8.22-5.31S244.89,320.48,249.67,322.34Z" style="fill:#7E57C2;stroke:#263238;stroke-linecap:round;stroke-linejoin:round"></path><path d="M246.71,329.9c.69-2.29,9.77-7.1,6.45-2.56C251.84,329.15,248.93,331,246.71,329.9Z" style="fill:#7E57C2;stroke:#263238;stroke-linecap:round;stroke-linejoin:round"></path><path d="M245.6,337.61s5.84,1.59,5,3.72-3.45,5.57-6.37,5.57-7.7-2.65-8.23-5.31S240.82,335.75,245.6,337.61Z" style="fill:#7E57C2;stroke:#263238;stroke-linecap:round;stroke-linejoin:round"></path><path d="M242.63,345.17c.7-2.29,9.78-7.1,6.46-2.56C247.76,344.42,244.85,346.22,242.63,345.17Z" style="fill:#7E57C2;stroke:#263238;stroke-linecap:round;stroke-linejoin:round"></path><path d="M221.84,330.48s5.84,1.6,5,3.72-3.45,5.57-6.37,5.57-7.7-2.65-8.23-5.31S217.06,328.63,221.84,330.48Z" style="fill:#7E57C2;stroke:#263238;stroke-linecap:round;stroke-linejoin:round"></path><path d="M218.87,338c.7-2.29,9.78-7.09,6.46-2.56C224,337.29,221.09,339.1,218.87,338Z" style="fill:#7E57C2;stroke:#263238;stroke-linecap:round;stroke-linejoin:round"></path><path d="M265.62,321.73s5.84,1.59,5.05,3.71S267.22,331,264.3,331s-7.7-2.65-8.23-5.3S260.85,319.87,265.62,321.73Z" style="fill:#7E57C2;stroke:#263238;stroke-linecap:round;stroke-linejoin:round"></path><path d="M262.66,329.28c.69-2.28,9.77-7.09,6.45-2.55C267.79,328.54,264.88,330.34,262.66,329.28Z" style="fill:#7E57C2;stroke:#263238;stroke-linecap:round;stroke-linejoin:round"></path><path d="M213,337.27s5.84,1.59,5,3.72-3.45,5.57-6.36,5.57-7.7-2.65-8.23-5.31S208.24,335.41,213,337.27Z" style="fill:#7E57C2;stroke:#263238;stroke-linecap:round;stroke-linejoin:round"></path><path d="M210.05,344.83c.69-2.29,9.77-7.1,6.45-2.56C215.18,344.08,212.27,345.88,210.05,344.83Z" style="fill:#7E57C2;stroke:#263238;stroke-linecap:round;stroke-linejoin:round"></path><path d="M238.81,325.05s5.84,1.59,5,3.72-3.45,5.57-6.37,5.57-7.69-2.65-8.22-5.31S234,323.19,238.81,325.05Z" style="fill:#7E57C2;stroke:#263238;stroke-linecap:round;stroke-linejoin:round"></path><path d="M235.84,332.61c.7-2.29,9.78-7.09,6.46-2.56C241,331.86,238.07,333.66,235.84,332.61Z" style="fill:#7E57C2;stroke:#263238;stroke-linecap:round;stroke-linejoin:round"></path><path d="M255.44,331.16s5.84,1.59,5,3.72-3.45,5.57-6.37,5.57-7.69-2.65-8.22-5.31S250.66,329.3,255.44,331.16Z" style="fill:#7E57C2;stroke:#263238;stroke-linecap:round;stroke-linejoin:round"></path><path d="M252.48,338.72c.69-2.29,9.77-7.09,6.45-2.56C257.61,338,254.7,339.77,252.48,338.72Z" style="fill:#7E57C2;stroke:#263238;stroke-linecap:round;stroke-linejoin:round"></path><path d="M238.44,314.11s5.84,1.59,5,3.72-3.45,5.57-6.37,5.57-7.7-2.65-8.23-5.31S233.66,312.25,238.44,314.11Z" style="fill:#7E57C2;stroke:#263238;stroke-linecap:round;stroke-linejoin:round"></path><path d="M235.47,321.67c.7-2.29,9.78-7.09,6.45-2.56C240.6,320.92,237.69,322.72,235.47,321.67Z" style="fill:#7E57C2;stroke:#263238;stroke-linecap:round;stroke-linejoin:round"></path><path d="M229.27,318.19s5.84,1.59,5,3.71-3.45,5.57-6.36,5.57-7.7-2.65-8.23-5.3S224.5,316.33,229.27,318.19Z" style="fill:#7E57C2;stroke:#263238;stroke-linecap:round;stroke-linejoin:round"></path><path d="M226.31,325.74c.69-2.28,9.77-7.09,6.45-2.55C231.44,325,228.53,326.8,226.31,325.74Z" style="fill:#7E57C2;stroke:#263238;stroke-linecap:round;stroke-linejoin:round"></path><path d="M282.73,319.27s-6.06,1.65-5.23,3.86,3.58,5.78,6.6,5.78,8-2.75,8.54-5.51S287.68,317.34,282.73,319.27Z" style="fill:#7E57C2;stroke:#263238;stroke-linecap:round;stroke-linejoin:round"></path><path d="M285.8,327.12c-.72-2.38-10.14-7.37-6.69-2.66C280.48,326.34,283.5,328.21,285.8,327.12Z" style="fill:#7E57C2;stroke:#263238;stroke-linecap:round;stroke-linejoin:round"></path><path d="M216.21,331.24s5.86,1.73,6.77.1,1.3-4.91-1-6.24-8.14-2-10.51-.62S211,330.15,216.21,331.24Z" style="fill:#7E57C2;stroke:#263238;stroke-linecap:round;stroke-linejoin:round"></path><path d="M219.35,325.37c-1.12,1.68,2.68,8.71,3.32,4.49A4,4,0,0,0,219.35,325.37Z" style="fill:#7E57C2;stroke:#263238;stroke-linecap:round;stroke-linejoin:round"></path><path d="M269.7,331.7c-2.27-1.78-6.26-1.88-8.14.94-2,3.06-3.05,6.79,0,8.15a7,7,0,0,0,8.48-2.37C272.21,335.53,271.48,333.1,269.7,331.7Z" style="fill:#7E57C2;stroke:#263238;stroke-linecap:round;stroke-linejoin:round"></path><path d="M267,338.75s-7.81-2-6.45-.68S265,341.47,267,338.75Z" style="fill:#7E57C2;stroke:#263238;stroke-linecap:round;stroke-linejoin:round"></path><path d="M283.62,322.53c-2.27-1.78-6.26-1.87-8.14,1-2,3-3.06,6.79,0,8.15a7,7,0,0,0,8.48-2.38C286.13,326.37,285.4,323.93,283.62,322.53Z" style="fill:#7E57C2;stroke:#263238;stroke-linecap:round;stroke-linejoin:round"></path><path d="M280.91,329.59s-7.81-2-6.45-.68S278.87,332.3,280.91,329.59Z" style="fill:#7E57C2;stroke:#263238;stroke-linecap:round;stroke-linejoin:round"></path><path d="M278.19,340.86c-2.27-1.78-6.26-1.87-8.14.95-2,3.05-3.06,6.79,0,8.14a6.94,6.94,0,0,0,8.48-2.37C280.7,344.7,280,342.26,278.19,340.86Z" style="fill:#7E57C2;stroke:#263238;stroke-linecap:round;stroke-linejoin:round"></path><path d="M275.48,347.92s-7.81-2-6.45-.68S273.44,350.63,275.48,347.92Z" style="fill:#7E57C2;stroke:#263238;stroke-linecap:round;stroke-linejoin:round"></path><path d="M240.85,330c-2.27-1.78-6.26-1.87-8.14.95-2,3.05-3.06,6.79,0,8.14a7,7,0,0,0,8.48-2.37C243.36,333.83,242.63,331.4,240.85,330Z" style="fill:#7E57C2;stroke:#263238;stroke-linecap:round;stroke-linejoin:round"></path><path d="M238.14,337.06s-7.81-2-6.45-.68S236.1,339.77,238.14,337.06Z" style="fill:#7E57C2;stroke:#263238;stroke-linecap:round;stroke-linejoin:round"></path><path d="M235.42,307.26c-2.27-1.78-6.26-1.88-8.14.94-2,3.06-3.06,6.79,0,8.15a7,7,0,0,0,8.48-2.37C237.93,311.09,237.2,308.66,235.42,307.26Z" style="fill:#7E57C2;stroke:#263238;stroke-linecap:round;stroke-linejoin:round"></path><path d="M232.71,314.31s-7.81-2-6.45-.67S230.67,317,232.71,314.31Z" style="fill:#7E57C2;stroke:#263238;stroke-linecap:round;stroke-linejoin:round"></path><path d="M219.47,332c-2.28-1.78-6.27-1.88-8.15.94-2,3.06-3,6.79,0,8.15a7,7,0,0,0,8.49-2.37C222,335.87,221.25,333.44,219.47,332Z" style="fill:#7E57C2;stroke:#263238;stroke-linecap:round;stroke-linejoin:round"></path><path d="M216.75,339.09s-7.8-2-6.44-.68S214.72,341.81,216.75,339.09Z" style="fill:#7E57C2;stroke:#263238;stroke-linecap:round;stroke-linejoin:round"></path><path d="M294.14,337.81c-2.27-1.78-6.26-1.88-8.14.94-2,3.06-3.06,6.79,0,8.15a7,7,0,0,0,8.48-2.37C296.65,341.64,295.92,339.21,294.14,337.81Z" style="fill:#7E57C2;stroke:#263238;stroke-linecap:round;stroke-linejoin:round"></path><path d="M291.43,344.86s-7.81-2-6.45-.68S289.39,347.58,291.43,344.86Z" style="fill:#7E57C2;stroke:#263238;stroke-linecap:round;stroke-linejoin:round"></path><path d="M261.22,324.23c-2.28-1.78-6.27-1.87-8.15.95-2,3.05-3,6.78,0,8.14a7,7,0,0,0,8.49-2.37C263.72,328.06,263,325.63,261.22,324.23Z" style="fill:#7E57C2;stroke:#263238;stroke-linecap:round;stroke-linejoin:round"></path><path d="M258.51,331.29s-7.81-2-6.45-.68S256.47,334,258.51,331.29Z" style="fill:#7E57C2;stroke:#263238;stroke-linecap:round;stroke-linejoin:round"></path><path d="M231.35,336.79c-2.28-1.78-6.27-1.88-8.15.95-2,3.05-3,6.78,0,8.14a7,7,0,0,0,8.49-2.37C233.85,340.62,233.13,338.19,231.35,336.79Z" style="fill:#7E57C2;stroke:#263238;stroke-linecap:round;stroke-linejoin:round"></path><path d="M228.64,343.84s-7.81-2-6.45-.67S226.6,346.56,228.64,343.84Z" style="fill:#7E57C2;stroke:#263238;stroke-linecap:round;stroke-linejoin:round"></path><path d="M191.63,330.68c-2.27-1.78-6.26-1.87-8.14.95-2,3.05-3.05,6.78,0,8.14A7,7,0,0,0,192,337.4C194.14,334.51,193.41,332.08,191.63,330.68Z" style="fill:#7E57C2;stroke:#263238;stroke-linecap:round;stroke-linejoin:round"></path><path d="M188.92,337.74s-7.81-2-6.45-.68S186.88,340.45,188.92,337.74Z" style="fill:#7E57C2;stroke:#263238;stroke-linecap:round;stroke-linejoin:round"></path><path d="M275.81,313c-2.27-1.78-6.26-1.88-8.14.94-2,3.06-3.06,6.79,0,8.15a7,7,0,0,0,8.48-2.37C278.32,316.86,277.59,314.43,275.81,313Z" style="fill:#7E57C2;stroke:#263238;stroke-linecap:round;stroke-linejoin:round"></path><path d="M273.1,320.08s-7.81-2-6.45-.67S271.06,322.8,273.1,320.08Z" style="fill:#7E57C2;stroke:#263238;stroke-linecap:round;stroke-linejoin:round"></path><path d="M210.3,318.12c-2.27-1.78-6.26-1.87-8.14.95-2,3.05-3.06,6.78,0,8.14a7,7,0,0,0,8.48-2.37C212.81,322,212.08,319.52,210.3,318.12Z" style="fill:#7E57C2;stroke:#263238;stroke-linecap:round;stroke-linejoin:round"></path><path d="M207.59,325.18s-7.81-2-6.45-.68S205.55,327.89,207.59,325.18Z" style="fill:#7E57C2;stroke:#263238;stroke-linecap:round;stroke-linejoin:round"></path><path d="M292,327.8s-4.7,1.28-4.06,3,2.78,4.49,5.13,4.49,6.2-2.14,6.62-4.27S295.88,326.31,292,327.8Z" style="fill:#7E57C2;stroke:#263238;stroke-linecap:round;stroke-linejoin:round"></path><path d="M294.42,333.89c-.56-1.84-7.87-5.71-5.19-2.06C290.29,333.28,292.63,334.74,294.42,333.89Z" style="fill:#7E57C2;stroke:#263238;stroke-linecap:round;stroke-linejoin:round"></path><path d="M235.64,340.76s-4.7,1.28-4.06,3,2.78,4.49,5.13,4.49,6.19-2.14,6.62-4.27S239.48,339.27,235.64,340.76Z" style="fill:#7E57C2;stroke:#263238;stroke-linecap:round;stroke-linejoin:round"></path><path d="M238,346.85c-.55-1.84-7.86-5.71-5.19-2.06C233.89,346.24,236.24,347.7,238,346.85Z" style="fill:#7E57C2;stroke:#263238;stroke-linecap:round;stroke-linejoin:round"></path><path d="M259.85,312.49s5.84,1.6,5,3.72-3.45,5.57-6.37,5.57-7.7-2.65-8.23-5.31S255.08,310.64,259.85,312.49Z" style="fill:#7E57C2;stroke:#263238;stroke-linecap:round;stroke-linejoin:round"></path><path d="M256.89,320.05c.69-2.29,9.77-7.09,6.45-2.56C262,319.3,259.11,321.11,256.89,320.05Z" style="fill:#7E57C2;stroke:#263238;stroke-linecap:round;stroke-linejoin:round"></path><path d="M259.71,340.57s5.84,1.59,5.05,3.71-3.45,5.58-6.37,5.58-7.7-2.66-8.23-5.31S254.94,338.71,259.71,340.57Z" style="fill:#7E57C2;stroke:#263238;stroke-linecap:round;stroke-linejoin:round"></path><path d="M256.75,348.13c.69-2.29,9.77-7.1,6.45-2.56C261.88,347.38,259,349.18,256.75,348.13Z" style="fill:#7E57C2;stroke:#263238;stroke-linecap:round;stroke-linejoin:round"></path><path d="M365.31,297.13a3.88,3.88,0,0,1-.48,0,3,3,0,0,1-2.48-3.44c1.11-6.88-.05-12.48-3.44-16.66-6.39-7.89-18.8-8.58-18.92-8.59a3,3,0,1,1,.27-6c.62,0,15.17.79,23.29,10.77,4.53,5.56,6.12,12.77,4.72,21.42A3,3,0,0,1,365.31,297.13Z" style="fill:#fff;stroke:#263238;stroke-linecap:round;stroke-linejoin:round"></path><path d="M359.13,298.45a2.59,2.59,0,0,1-.48,0,3,3,0,0,1-2.49-3.44c1.11-6.87,0-12.48-3.43-16.66-6.4-7.88-18.8-8.57-18.93-8.58a3,3,0,0,1,.27-6c.62,0,15.17.79,23.29,10.76,4.53,5.57,6.12,12.78,4.73,21.43A3,3,0,0,1,359.13,298.45Z" style="fill:#fff;stroke:#263238;stroke-linecap:round;stroke-linejoin:round"></path><path d="M352.94,299.78a3.88,3.88,0,0,1-.48,0A3,3,0,0,1,350,296.3c1.11-6.89-.05-12.5-3.46-16.69-6.44-7.91-18.78-8.55-18.9-8.55a3,3,0,0,1,.27-6c.61,0,15.17.79,23.29,10.77,4.53,5.56,6.12,12.77,4.72,21.42A3,3,0,0,1,352.94,299.78Z" style="fill:#fff;stroke:#263238;stroke-linecap:round;stroke-linejoin:round"></path><path d="M346.76,301.1a2.59,2.59,0,0,1-.48,0,3,3,0,0,1-2.49-3.44c1.11-6.89-.05-12.5-3.45-16.68-6.44-7.91-18.78-8.55-18.9-8.56a3,3,0,1,1,.26-6c.62,0,15.17.79,23.29,10.76,4.53,5.57,6.12,12.78,4.72,21.43A3,3,0,0,1,346.76,301.1Z" style="fill:#fff;stroke:#263238;stroke-linecap:round;stroke-linejoin:round"></path><path d="M438.41,264.58A37.76,37.76,0,0,0,425,267.74a99.21,99.21,0,0,1-18.47,6c-12.73,2.7-29.2,7.53-29.5,12.23s4.4,15.64,1.18,27.78-17.89,22.13-9.52,24,36.7-4.79,59.62-13.69,28.24-20.59,27.11-41.39C454.52,267.05,447.08,264.25,438.41,264.58Z" style="fill:#fff;stroke:#263238;stroke-linecap:round;stroke-linejoin:round"></path><path d="M433.05,264.35a37.56,37.56,0,0,0-13.46,3.17,100.06,100.06,0,0,1-18.47,6c-12.74,2.71-29.2,7.53-29.5,12.23s4.39,15.65,1.17,27.78-17.88,22.13-9.51,24,36.69-4.78,59.62-13.69,28.23-20.59,27.11-41.38C449.16,266.83,441.72,264,433.05,264.35Z" style="fill:#fff;stroke:#263238;stroke-linecap:round;stroke-linejoin:round"></path><path d="M428.71,269.81a31.86,31.86,0,0,0-11.43,2.68,84.42,84.42,0,0,1-15.69,5.1c-10.83,2.3-24.81,6.4-25.07,10.4s3.74,13.29,1,23.6-15.2,18.8-8.09,20.36,31.18-4.06,50.66-11.63,24-17.49,23-35.16C442.4,271.91,436.08,269.52,428.71,269.81Z" style="fill:#fff;stroke:#263238;stroke-linecap:round;stroke-linejoin:round;stroke-width:0.5px"></path><path d="M420.92,279.59a21.93,21.93,0,0,0-7.8,1.84,57.36,57.36,0,0,1-10.7,3.48c-7.38,1.56-16.92,4.36-17.09,7.09s2.54,9.06.68,16.09-10.37,12.82-5.52,13.89,21.27-2.77,34.55-7.93,16.36-11.93,15.71-24C430.26,281,426,279.4,420.92,279.59Z" style="fill:#fff;stroke:#263238;stroke-linecap:round;stroke-linejoin:round;stroke-width:0.5px"></path><path d="M416.19,266.67a37.56,37.56,0,0,0-13.46,3.17,100.06,100.06,0,0,1-18.47,6c-12.74,2.71-29.2,7.53-29.5,12.23s4.39,15.65,1.17,27.78-17.88,22.13-9.51,24S383.11,335,406,326.13s28.23-20.59,27.11-41.38C432.3,269.15,424.86,266.34,416.19,266.67Z" style="fill:#fff;stroke:#263238;stroke-linecap:round;stroke-linejoin:round"></path><path d="M410.82,266.45a37.5,37.5,0,0,0-13.45,3.16,98.81,98.81,0,0,1-18.47,6c-12.74,2.71-29.2,7.53-29.5,12.24s4.39,15.64,1.17,27.78-17.89,22.12-9.52,24,36.7-4.78,59.63-13.69,28.23-20.58,27.1-41.38C426.94,268.92,419.5,266.12,410.82,266.45Z" style="fill:#fff;stroke:#263238;stroke-linecap:round;stroke-linejoin:round"></path><path d="M406.49,271.9a32,32,0,0,0-11.44,2.69,84.66,84.66,0,0,1-15.69,5.1c-10.82,2.3-24.8,6.39-25.06,10.39s3.73,13.29,1,23.6-15.2,18.8-8.09,20.36,31.18-4.06,50.65-11.63,24-17.49,23-35.16C420.18,274,413.85,271.62,406.49,271.9Z" style="fill:#fff;stroke:#263238;stroke-linecap:round;stroke-linejoin:round;stroke-width:0.5px"></path><path d="M398.7,281.69a21.66,21.66,0,0,0-7.8,1.83A57.36,57.36,0,0,1,380.2,287c-7.38,1.57-16.92,4.36-17.1,7.09s2.55,9.06.68,16.1-10.36,12.82-5.51,13.88,21.26-2.77,34.55-7.93,16.36-11.93,15.71-24C408,283.12,403.72,281.5,398.7,281.69Z" style="fill:#fff;stroke:#263238;stroke-linecap:round;stroke-linejoin:round;stroke-width:0.5px"></path><path d="M378.34,273.94a37.77,37.77,0,0,0-13.46,3.17,99.42,99.42,0,0,1-18.46,6c-12.74,2.71-29.21,7.53-29.5,12.24s4.39,15.64,1.17,27.78-17.89,22.12-9.52,24,36.7-4.78,59.62-13.69S396.43,312.82,395.3,292C394.46,276.42,387,273.61,378.34,273.94Z" style="fill:#fff;stroke:#263238;stroke-linecap:round;stroke-linejoin:round"></path><path d="M373,273.72a37.76,37.76,0,0,0-13.46,3.16,99.21,99.21,0,0,1-18.47,6c-12.73,2.7-29.2,7.52-29.5,12.23s4.4,15.64,1.18,27.78-17.89,22.12-9.52,24,36.7-4.78,59.62-13.69,28.24-20.58,27.11-41.38C389.09,276.19,381.65,273.39,373,273.72Z" style="fill:#fff;stroke:#263238;stroke-linecap:round;stroke-linejoin:round"></path><path d="M368.64,279.17a31.87,31.87,0,0,0-11.43,2.69,85.18,85.18,0,0,1-15.69,5.1c-10.82,2.3-24.81,6.39-25.06,10.39s3.73,13.29,1,23.6-15.19,18.8-8.08,20.36,31.17-4.06,50.65-11.63,24-17.49,23-35.16C382.33,281.27,376,278.89,368.64,279.17Z" style="fill:#fff;stroke:#263238;stroke-linecap:round;stroke-linejoin:round;stroke-width:0.5px"></path><path d="M360.85,289a21.92,21.92,0,0,0-7.8,1.83,57.11,57.11,0,0,1-10.7,3.48c-7.38,1.57-16.92,4.36-17.09,7.09s2.54,9.07.68,16.1-10.37,12.82-5.52,13.89,21.27-2.78,34.55-7.94,16.36-11.93,15.71-24C370.19,290.39,365.88,288.77,360.85,289Z" style="fill:#fff;stroke:#263238;stroke-linecap:round;stroke-linejoin:round;stroke-width:0.5px"></path><path d="M276.3,372c-79.82,0-142.14-15.67-170.6-34.54,2.59,5.89,5.61,12.53,9.13,20a204.11,204.11,0,0,0,22.27,8.64C174.38,378.27,223.81,385,276.3,385s101.93-6.72,139.2-18.92a199,199,0,0,0,24-9.46c2.87-6.34,5.73-13,8.46-19.86C420,355.93,357.11,372,276.3,372Z" style="fill:#7E57C2;stroke:#263238;stroke-linecap:round;stroke-linejoin:round"></path></g></svg>